<svg width="25" height="20" viewBox="0 0 25 20" fill="none" xmlns="http://www.w3.org/2000/svg">
<g clip-path="url(#clip0_15_134)">
<path d="M8.85498 2.5283H5.46815L0 9.72137L5.46815 16.9144H8.85498L3.38683 9.72137L8.85498 2.5283ZM15.3411 2.5283H18.728L24.1961 9.72137L18.728 16.9144H15.3411L20.8093 9.72137L15.3411 2.5283ZM13.8171 0.00787L14.9906 0.281573C15.1757 0.324893 15.2899 0.509987 15.2486 0.695081L10.8182 19.7342C10.7748 19.9173 10.5897 20.0335 10.4046 19.9921L9.23304 19.7184C9.04795 19.6751 8.93374 19.49 8.97509 19.3049L13.4055 0.26582C13.4489 0.0826953 13.6339 -0.0334808 13.8171 0.00787Z" fill="white"/>
</g>
<defs>
<clipPath id="clip0_15_134">
<rect width="24.1961" height="20" fill="white"/>
</clipPath>
</defs>
</svg>
