<svg width="16" height="16" viewBox="0 0 16 16" fill="none" xmlns="http://www.w3.org/2000/svg">
<g clip-path="url(#clip0_15_38)">
<path fill-rule="evenodd" clip-rule="evenodd" d="M11.6693 1.81771V2.82422H13.2565H13.2578V2.82682C13.7591 2.82812 14.2135 3.03125 14.5417 3.36068C14.8672 3.6875 15.0703 4.13932 15.0716 4.63932H15.0742V4.64193V14.1823V14.1836H15.0716C15.0703 14.6836 14.8672 15.138 14.5378 15.4674C14.2109 15.793 13.7591 15.9961 13.2591 15.9974V16H13.2565H5.22266H5.22135V15.9974C4.72135 15.9961 4.26563 15.793 3.9375 15.4635C3.61198 15.1367 3.40885 14.6849 3.40755 14.1849H3.40495V14.1823V12.0456H1.81771H1.81641V12.043C1.31641 12.0417 0.860677 11.8385 0.532552 11.5091C0.207031 11.1823 0.00390625 10.7305 0.00260417 10.2305H0V10.2279V1.81771V1.81641H0.00260417C0.00390625 1.3151 0.208333 0.860677 0.536458 0.532552C0.863281 0.207031 1.3151 0.00390625 1.8151 0.00260417V0H1.81771H9.85156H9.85287V0.00260417C10.3542 0.00390625 10.8086 0.207031 11.1367 0.536458C11.4622 0.863281 11.6654 1.3151 11.6667 1.8151H11.6693V1.81771ZM10.2917 2.82422V1.81771V1.8151H10.2943C10.2943 1.69661 10.2435 1.58724 10.1628 1.50651C10.0833 1.42708 9.97266 1.3763 9.85417 1.3763V1.37891H9.85287H1.81901H1.81641V1.3763C1.69792 1.3763 1.58854 1.42708 1.50781 1.50781C1.42839 1.58724 1.3776 1.69792 1.3776 1.81641H1.38021V1.81771V10.2279V10.2305H1.3776C1.3776 10.349 1.42839 10.4583 1.50911 10.5391C1.58854 10.6185 1.69922 10.6693 1.81771 10.6693V10.6667H1.81901H3.40625V4.64193V4.64063H3.40885C3.41016 4.13932 3.61458 3.6849 3.94271 3.35677C4.26953 3.03125 4.72135 2.82812 5.22135 2.82682V2.82422H5.22396H10.2917ZM13.6953 14.1823V4.64193V4.63932H13.6979C13.6979 4.52083 13.6471 4.41146 13.5664 4.33073C13.487 4.2513 13.3763 4.20052 13.2578 4.20052V4.20312H13.2565H5.22266H5.22005V4.20052C5.10156 4.20052 4.99219 4.2513 4.91146 4.33203C4.83203 4.41146 4.78125 4.52214 4.78125 4.64063H4.78385V4.64193V14.1823V14.1849H4.78125C4.78125 14.3034 4.83203 14.4128 4.91276 14.4935C4.99219 14.5729 5.10286 14.6237 5.22135 14.6237V14.6211H5.22266H13.2565H13.2591V14.6237C13.3776 14.6237 13.487 14.5729 13.5677 14.4922C13.6471 14.4128 13.6979 14.3021 13.6979 14.1836H13.6953V14.1823Z" fill="#222220"/>
</g>
<defs>
<clipPath id="clip0_15_38">
<rect width="15.0742" height="16" fill="white"/>
</clipPath>
</defs>
</svg>
