<svg width="313" height="350" viewBox="0 0 313 350" fill="none" xmlns="http://www.w3.org/2000/svg">
<g clip-path="url(#clip0_26_182)">
<path d="M174.519 83.1731H172.596V30.491C172.596 22.4043 169.384 14.6488 163.666 8.93062C157.947 3.21245 150.192 1.02038e-05 142.105 0H30.491C26.4869 -1.01047e-05 22.5219 0.788652 18.8226 2.32096C15.1233 3.85326 11.762 6.0992 8.93061 8.93054C6.09926 11.7619 3.8533 15.1232 2.32098 18.8225C0.788659 22.5218 -2.16759e-05 26.4868 -3.05176e-05 30.4909V319.509C-3.43069e-05 323.513 0.788625 327.478 2.32094 331.177C3.85325 334.877 6.09921 338.238 8.93055 341.069C11.7619 343.901 15.1232 346.147 18.8225 347.679C22.5219 349.211 26.4868 350 30.4909 350H142.105C150.192 350 157.947 346.788 163.665 341.069C169.384 335.351 172.596 327.596 172.596 319.509V120.673H174.519V83.1731Z" fill="#E6E6E6"/>
<path d="M143.335 7.93266H128.766C129.436 9.5753 129.692 11.3575 129.511 13.1223C129.33 14.887 128.717 16.5802 127.728 18.0526C126.738 19.525 125.402 20.7315 123.836 21.5657C122.271 22.4 120.524 22.8364 118.75 22.8365H54.8076C53.0336 22.8364 51.2868 22.4 49.7212 21.5657C48.1555 20.7315 46.8191 19.525 45.8295 18.0526C44.84 16.5802 44.2278 14.887 44.0468 13.1222C43.8657 11.3575 44.1215 9.57526 44.7915 7.93262H31.1837C25.1447 7.93261 19.353 10.3316 15.0827 14.6019C10.8124 18.8721 8.41343 24.6639 8.41342 30.7029V319.298C8.41342 325.337 10.8124 331.128 15.0827 335.399C19.3529 339.669 25.1446 342.068 31.1837 342.068H143.335C146.326 342.068 149.286 341.479 152.049 340.335C154.812 339.19 157.322 337.513 159.436 335.399C161.551 333.284 163.228 330.774 164.372 328.011C165.517 325.249 166.106 322.288 166.106 319.298V30.703C166.106 27.7127 165.517 24.7518 164.372 21.9891C163.228 19.2265 161.551 16.7163 159.436 14.6019C157.322 12.4875 154.812 10.8102 152.049 9.66593C149.286 8.52162 146.326 7.93265 143.335 7.93266Z" fill="white"/>
<path d="M156.851 234.6H22.3781C21.7179 234.599 21.085 234.336 20.6181 233.869C20.1513 233.403 19.8887 232.77 19.8879 232.109V198.753C19.8887 198.092 20.1513 197.459 20.6181 196.993C21.085 196.526 21.7179 196.263 22.3781 196.262H156.851C157.511 196.263 158.144 196.526 158.611 196.993C159.078 197.459 159.341 198.092 159.341 198.753V232.11C159.341 232.77 159.078 233.403 158.611 233.87C158.144 234.336 157.511 234.599 156.851 234.6ZM22.3781 197.258C21.982 197.259 21.6021 197.416 21.322 197.696C21.0418 197.977 20.8843 198.356 20.8839 198.753V232.11C20.8843 232.506 21.0418 232.886 21.322 233.166C21.6021 233.446 21.982 233.604 22.3781 233.604H156.851C157.247 233.604 157.627 233.446 157.907 233.166C158.188 232.886 158.345 232.506 158.345 232.11V198.753C158.345 198.356 158.188 197.977 157.907 197.696C157.627 197.416 157.247 197.259 156.851 197.258H22.3781Z" fill="#E6E6E6"/>
<path d="M39.8094 225.89C45.5857 225.89 50.2684 221.207 50.2684 215.431C50.2684 209.655 45.5857 204.972 39.8094 204.972C34.0331 204.972 29.3505 209.655 29.3505 215.431C29.3505 221.207 34.0331 225.89 39.8094 225.89Z" fill="#E6E6E6"/>
<path d="M63.9648 208.459C63.5075 208.466 63.0715 208.653 62.7508 208.979C62.4302 209.305 62.2504 209.744 62.2504 210.202C62.2504 210.659 62.4302 211.098 62.7508 211.424C63.0715 211.75 63.5075 211.937 63.9648 211.945H146.143C146.605 211.954 147.052 211.779 147.385 211.458C147.718 211.138 147.91 210.698 147.919 210.236C147.928 209.773 147.753 209.326 147.432 208.993C147.112 208.66 146.672 208.468 146.21 208.459L146.2 208.459C146.181 208.458 146.162 208.458 146.143 208.459H63.9648Z" fill="#E6E6E6"/>
<path d="M63.9648 218.917C63.5075 218.925 63.0715 219.112 62.7508 219.438C62.4302 219.764 62.2504 220.203 62.2504 220.661C62.2504 221.118 62.4302 221.557 62.7508 221.883C63.0715 222.209 63.5075 222.396 63.9648 222.404H146.143C146.604 222.41 147.05 222.233 147.381 221.912C147.712 221.59 147.903 221.151 147.91 220.689C147.918 220.228 147.742 219.782 147.421 219.45C147.101 219.118 146.662 218.926 146.2 218.917C146.181 218.917 146.162 218.917 146.143 218.917H63.9648Z" fill="#E6E6E6"/>
<path d="M156.851 290.381H22.3781C21.7179 290.38 21.085 290.118 20.6181 289.651C20.1513 289.184 19.8887 288.551 19.8879 287.891V254.534C19.8887 253.874 20.1513 253.241 20.6181 252.774C21.085 252.307 21.7179 252.045 22.3781 252.044H156.851C157.511 252.045 158.144 252.307 158.611 252.774C159.078 253.241 159.341 253.874 159.341 254.534V287.891C159.341 288.552 159.078 289.184 158.611 289.651C158.144 290.118 157.511 290.38 156.851 290.381ZM22.3781 253.04C21.982 253.04 21.6021 253.198 21.322 253.478C21.0418 253.758 20.8843 254.138 20.8839 254.534V287.891C20.8843 288.288 21.0418 288.667 21.322 288.948C21.6021 289.228 21.982 289.385 22.3781 289.386H156.851C157.247 289.385 157.627 289.228 157.907 288.948C158.188 288.667 158.345 288.288 158.345 287.891V254.534C158.345 254.138 158.188 253.758 157.907 253.478C157.627 253.198 157.247 253.04 156.851 253.04H22.3781Z" fill="#E6E6E6"/>
<path d="M39.8094 281.671C45.5857 281.671 50.2684 276.989 50.2684 271.212C50.2684 265.436 45.5857 260.753 39.8094 260.753C34.0331 260.753 29.3505 265.436 29.3505 271.212C29.3505 276.989 34.0331 281.671 39.8094 281.671Z" fill="#E6E6E6"/>
<path d="M63.9648 264.24C63.5075 264.248 63.0715 264.435 62.7508 264.761C62.4302 265.087 62.2504 265.526 62.2504 265.983C62.2504 266.441 62.4302 266.88 62.7508 267.206C63.0715 267.532 63.5075 267.719 63.9648 267.726H146.143C146.604 267.733 147.05 267.556 147.381 267.234C147.712 266.913 147.903 266.473 147.91 266.012C147.918 265.55 147.742 265.105 147.421 264.773C147.101 264.44 146.662 264.249 146.2 264.24C146.181 264.24 146.162 264.24 146.143 264.24H63.9648Z" fill="#E6E6E6"/>
<path d="M63.9648 274.699C63.5075 274.707 63.0715 274.894 62.7508 275.22C62.4302 275.546 62.2504 275.985 62.2504 276.442C62.2504 276.899 62.4302 277.338 62.7508 277.664C63.0715 277.991 63.5075 278.178 63.9648 278.185H146.143C146.604 278.192 147.05 278.015 147.381 277.693C147.712 277.372 147.903 276.932 147.91 276.471C147.918 276.009 147.742 275.563 147.421 275.231C147.101 274.899 146.662 274.708 146.2 274.699C146.181 274.699 146.162 274.699 146.143 274.699H63.9648Z" fill="#E6E6E6"/>
<path d="M86.7849 165.379C74.2416 165.384 62.2099 160.407 53.3367 151.541C44.4635 142.675 39.4757 130.647 39.4705 118.104V118.065C39.4705 117.966 39.4705 117.861 39.4762 117.762C39.6205 91.8509 60.8443 70.7498 86.7849 70.7498C99.3335 70.7483 111.369 75.7319 120.243 84.604C129.117 93.4762 134.103 105.51 134.105 118.059C134.106 130.607 129.123 142.643 120.251 151.517C111.378 160.391 99.3443 165.377 86.7957 165.379H86.7849V165.379ZM86.7849 71.7448C74.5564 71.7721 62.8326 76.6239 54.1609 85.246C45.4892 93.8681 40.5702 105.564 40.4727 117.792C40.4674 117.898 40.4674 117.984 40.4674 118.063C40.4663 127.225 43.182 136.182 48.2712 143.801C53.3605 151.419 60.5946 157.358 69.0588 160.865C77.523 164.372 86.8372 165.291 95.8234 163.504C104.81 161.718 113.064 157.307 119.544 150.829C126.023 144.352 130.436 136.098 132.225 127.112C134.013 118.126 133.097 108.812 129.592 100.347C126.087 91.8817 120.15 84.6461 112.533 79.555C104.916 74.4639 95.9595 71.7459 86.7975 71.7448H86.7849Z" fill="#E6E6E6"/>
<path d="M151.543 222.588C162.168 222.588 170.78 213.976 170.78 203.352C170.78 192.728 162.168 184.115 151.543 184.115C140.919 184.115 132.307 192.728 132.307 203.352C132.307 213.976 140.919 222.588 151.543 222.588Z" fill="white"/>
<path d="M144.862 212.006C144.829 212.006 144.796 212.006 144.763 212.005H134.423C133.111 211.985 131.86 211.449 130.94 210.514C130.019 209.579 129.503 208.32 129.502 207.008C129.502 205.695 130.017 204.436 130.937 203.5C131.857 202.564 133.107 202.028 134.419 202.006H144.768C144.818 202.005 144.874 202.005 144.928 202.006C146.248 202.024 147.507 202.563 148.431 203.506C149.355 204.449 149.868 205.719 149.86 207.039C149.851 208.359 149.321 209.622 148.384 210.552C147.448 211.483 146.182 212.006 144.862 212.006Z" fill="#6C63FF"/>
<path d="M312.296 348.829H156.464V349.906H312.296V348.829Z" fill="#3F3D56"/>
<path d="M166.065 257.642C165.942 257.451 165.841 257.248 165.762 257.036L163.279 250.387C162.99 249.61 163.02 248.75 163.364 247.996C163.708 247.242 164.337 246.656 165.113 246.365L220.535 225.67C221.312 225.381 222.172 225.412 222.926 225.756C223.68 226.1 224.266 226.729 224.557 227.505L227.04 234.155C227.184 234.539 227.25 234.948 227.236 235.358C227.221 235.769 227.126 236.172 226.955 236.546C226.785 236.919 226.543 237.255 226.242 237.535C225.942 237.815 225.59 238.033 225.205 238.176L169.784 258.871C169.116 259.12 168.384 259.134 167.708 258.91C167.032 258.687 166.452 258.239 166.065 257.642Z" fill="#6C63FF"/>
<path d="M220.359 223.952L197.822 232.939C197.112 233.152 196.511 233.631 196.145 234.276C195.778 234.921 195.674 235.682 195.854 236.401L198.469 246.873C198.573 247.287 198.766 247.672 199.036 248.002C199.307 248.332 199.647 248.598 200.032 248.781C200.417 248.964 200.838 249.059 201.264 249.059C201.691 249.06 202.112 248.966 202.498 248.785L225.097 238.147C225.813 237.879 226.393 237.337 226.711 236.642C227.029 235.946 227.058 235.153 226.792 234.436L224.075 225.647C223.807 224.93 223.265 224.349 222.568 224.031C221.871 223.713 221.077 223.685 220.359 223.952Z" fill="#2F2E41"/>
<path d="M261.603 289.193C260.896 289.275 260.182 289.112 259.579 288.732C258.976 288.353 258.521 287.779 258.289 287.106L238.997 231.181C238.863 230.793 238.807 230.382 238.832 229.972C238.857 229.563 238.962 229.162 239.142 228.793C239.322 228.424 239.572 228.094 239.88 227.821C240.187 227.549 240.545 227.34 240.933 227.206L247.643 224.891C248.427 224.622 249.286 224.674 250.031 225.037C250.776 225.4 251.346 226.044 251.617 226.827L270.909 282.753C271.178 283.537 271.126 284.395 270.763 285.14C270.4 285.886 269.756 286.456 268.973 286.727L262.263 289.042C262.049 289.116 261.828 289.167 261.603 289.193Z" fill="#6C63FF"/>
<path d="M253.055 225.87L260.459 248.976C260.746 249.66 260.759 250.428 260.495 251.121C260.231 251.814 259.71 252.378 259.04 252.697L249.297 257.342C248.912 257.525 248.491 257.621 248.065 257.622C247.638 257.624 247.217 257.531 246.831 257.35C246.445 257.169 246.104 256.905 245.832 256.576C245.56 256.248 245.365 255.863 245.259 255.45L239.089 231.246C238.841 230.523 238.889 229.731 239.224 229.043C239.558 228.356 240.152 227.829 240.874 227.577L249.383 224.082C250.107 223.833 250.901 223.881 251.589 224.217C252.278 224.552 252.805 225.147 253.055 225.87Z" fill="#2F2E41"/>
<path d="M230.637 349.146H223.539C222.71 349.145 221.916 348.816 221.33 348.23C220.744 347.644 220.414 346.849 220.413 346.02V286.861C220.414 286.032 220.744 285.238 221.33 284.651C221.916 284.065 222.71 283.736 223.539 283.735H230.637C231.466 283.736 232.26 284.065 232.846 284.651C233.432 285.238 233.762 286.032 233.763 286.861V346.02C233.762 346.849 233.432 347.644 232.846 348.23C232.26 348.816 231.466 349.145 230.637 349.146Z" fill="#2F2E41"/>
<path d="M244.676 349.146H237.578C236.749 349.145 235.955 348.816 235.369 348.23C234.783 347.644 234.453 346.849 234.452 346.02V286.861C234.453 286.032 234.783 285.238 235.369 284.651C235.955 284.065 236.749 283.736 237.578 283.735H244.676C245.505 283.736 246.3 284.065 246.886 284.651C247.472 285.238 247.801 286.032 247.802 286.861V346.02C247.801 346.849 247.472 347.644 246.886 348.23C246.3 348.816 245.505 349.145 244.676 349.146Z" fill="#2F2E41"/>
<path d="M250.526 293.816H218.275C217.383 293.815 216.527 293.46 215.896 292.828C215.265 292.197 214.91 291.342 214.909 290.449V238.056C214.909 232.886 216.962 227.929 220.618 224.273C224.273 220.618 229.231 218.564 234.401 218.564C239.57 218.564 244.528 220.618 248.184 224.273C251.839 227.929 253.893 232.886 253.893 238.056V290.449C253.892 291.342 253.537 292.197 252.906 292.828C252.275 293.46 251.419 293.815 250.526 293.816Z" fill="#CCCCCC"/>
<path d="M255.381 306.632H239.029V214.222L239.333 214.305C243.938 215.569 248.002 218.308 250.9 222.103C253.799 225.898 255.373 230.539 255.381 235.315V306.632Z" fill="#2F2E41"/>
<path d="M228.442 306.632H212.091V235.315C212.099 230.539 213.673 225.898 216.572 222.103C219.47 218.308 223.534 215.569 228.139 214.305L228.442 214.222V306.632Z" fill="#2F2E41"/>
<path d="M234.156 207.726C248.371 207.726 259.894 196.203 259.894 181.988C259.894 167.773 248.371 156.25 234.156 156.25C219.941 156.25 208.418 167.773 208.418 181.988C208.418 196.203 219.941 207.726 234.156 207.726Z" fill="#6C63FF"/>
<path d="M263.255 176.063C263.255 176.063 264.698 136.147 245.942 149.131C245.942 149.131 235.122 112.822 208.671 167.166L200.977 174.861C200.977 174.861 235.603 170.051 267.824 184.96L263.255 176.063Z" fill="#2F2E41"/>
<path d="M234.549 194.735C232.959 194.691 230.98 194.635 229.456 193.522C229.002 193.177 228.629 192.736 228.363 192.232C228.097 191.728 227.945 191.171 227.917 190.601C227.889 190.197 227.956 189.791 228.111 189.416C228.266 189.041 228.506 188.707 228.812 188.441C229.608 187.768 230.77 187.61 232.023 187.978L230.725 178.492L231.678 178.361L233.204 189.514L232.408 189.149C231.486 188.725 230.219 188.51 229.432 189.175C229.239 189.349 229.089 189.565 228.993 189.807C228.896 190.048 228.857 190.309 228.878 190.568C228.901 190.992 229.016 191.405 229.213 191.781C229.411 192.157 229.687 192.486 230.023 192.745C231.21 193.612 232.787 193.723 234.576 193.773L234.549 194.735Z" fill="#2F2E41"/>
<path d="M226.013 179.31H220.833V180.272H226.013V179.31Z" fill="#2F2E41"/>
<path d="M242.364 179.31H237.184V180.272H242.364V179.31Z" fill="#2F2E41"/>
<path d="M176.771 260.095C176.076 260.417 175.283 260.45 174.564 260.187C173.845 259.924 173.261 259.386 172.939 258.692L156.342 222.92C156.02 222.225 155.987 221.432 156.25 220.713C156.513 219.995 157.051 219.41 157.745 219.088C158.439 218.766 159.233 218.733 159.951 218.996C160.67 219.259 161.255 219.797 161.577 220.491L178.174 256.263C178.496 256.957 178.529 257.751 178.266 258.47C178.003 259.188 177.465 259.773 176.771 260.095Z" fill="#3F3D56"/>
<path d="M159.719 221.603C159.209 221.603 158.719 221.4 158.359 221.04C157.998 220.679 157.795 220.19 157.795 219.679V195.175H133.75C133.239 195.175 132.75 194.973 132.389 194.612C132.029 194.251 131.826 193.762 131.826 193.252C131.826 192.742 132.029 192.252 132.389 191.892C132.75 191.531 133.239 191.328 133.75 191.328H159.719C160.229 191.328 160.718 191.531 161.079 191.892C161.44 192.252 161.643 192.742 161.643 193.252V219.679C161.643 220.19 161.44 220.679 161.079 221.04C160.718 221.4 160.229 221.603 159.719 221.603Z" fill="#6C63FF"/>
<path d="M160.174 224.323C156.032 226.244 151.414 226.894 146.903 226.191C142.392 225.488 138.191 223.463 134.831 220.372C131.47 217.281 129.102 213.263 128.026 208.826C126.949 204.389 127.212 199.733 128.782 195.445C130.352 191.158 133.158 187.433 136.845 184.74C140.532 182.048 144.935 180.509 149.496 180.319C154.058 180.128 158.574 181.295 162.472 183.671C166.371 186.047 169.477 189.526 171.399 193.667C173.968 199.222 174.229 205.569 172.125 211.316C170.021 217.063 165.723 221.741 160.174 224.323ZM143.172 187.678C140.066 189.119 137.457 191.449 135.675 194.372C133.893 197.296 133.018 200.683 133.161 204.104C133.304 207.526 134.458 210.828 136.477 213.593C138.496 216.358 141.29 218.463 144.506 219.64C147.721 220.817 151.214 221.015 154.541 220.207C157.869 219.4 160.882 217.624 163.201 215.104C165.519 212.584 167.038 209.433 167.565 206.049C168.093 202.666 167.605 199.202 166.164 196.096C164.227 191.935 160.719 188.711 156.409 187.133C152.099 185.555 147.338 185.75 143.172 187.678Z" fill="#3F3D56"/>
</g>
<defs>
<clipPath id="clip0_26_182">
<rect width="312.296" height="350" fill="white"/>
</clipPath>
</defs>
</svg>
