<svg width="269" height="57" viewBox="0 0 269 57" fill="none" xmlns="http://www.w3.org/2000/svg">
<path d="M49.572 38V11.4H61.124C62.72 11.4 64.1767 11.78 65.494 12.54C66.8113 13.2747 67.85 14.288 68.61 15.58C69.3953 16.8467 69.788 18.278 69.788 19.874C69.788 21.394 69.3953 22.8 68.61 24.092C67.85 25.3587 66.8113 26.372 65.494 27.132C64.202 27.8667 62.7453 28.234 61.124 28.234H54.398V38H49.572ZM65 38L58.236 25.992L63.328 25.042L70.852 38.038L65 38ZM54.398 23.94H61.162C61.8967 23.94 62.53 23.7753 63.062 23.446C63.6193 23.0913 64.05 22.61 64.354 22.002C64.658 21.394 64.81 20.7227 64.81 19.988C64.81 19.152 64.62 18.43 64.24 17.822C63.86 17.214 63.328 16.7327 62.644 16.378C61.96 16.0233 61.1747 15.846 60.288 15.846H54.398V23.94ZM83.8759 38.38C81.7732 38.38 79.9112 37.9367 78.2899 37.05C76.6939 36.1633 75.4399 34.96 74.5279 33.44C73.6412 31.8947 73.1979 30.134 73.1979 28.158C73.1979 26.5873 73.4512 25.156 73.9579 23.864C74.4646 22.572 75.1612 21.4573 76.0479 20.52C76.9599 19.5573 78.0366 18.8227 79.2779 18.316C80.5446 17.784 81.9252 17.518 83.4199 17.518C84.7372 17.518 85.9659 17.7713 87.1059 18.278C88.2459 18.7847 89.2339 19.4813 90.0699 20.368C90.9059 21.2293 91.5392 22.268 91.9699 23.484C92.4259 24.6747 92.6412 25.9793 92.6159 27.398L92.5779 29.032H76.3519L75.4779 25.84H88.6639L88.0559 26.486V25.65C87.9799 24.8647 87.7266 24.1807 87.2959 23.598C86.8652 22.99 86.3079 22.5213 85.6239 22.192C84.9652 21.8373 84.2306 21.66 83.4199 21.66C82.1786 21.66 81.1272 21.9007 80.2659 22.382C79.4299 22.8633 78.7966 23.56 78.3659 24.472C77.9352 25.3587 77.7199 26.4733 77.7199 27.816C77.7199 29.108 77.9859 30.2353 78.5179 31.198C79.0752 32.1607 79.8479 32.908 80.8359 33.44C81.8492 33.9467 83.0272 34.2 84.3699 34.2C85.3072 34.2 86.1686 34.048 86.9539 33.744C87.7392 33.44 88.5879 32.8953 89.4999 32.11L91.8179 35.34C91.1339 35.9733 90.3486 36.518 89.4619 36.974C88.6006 37.4047 87.6886 37.7467 86.7259 38C85.7632 38.2533 84.8132 38.38 83.8759 38.38ZM96.7555 46.36V17.974H101.354L101.43 22.534L100.632 22.192C100.784 21.4067 101.214 20.672 101.924 19.988C102.633 19.2787 103.494 18.7087 104.508 18.278C105.546 17.8473 106.623 17.632 107.738 17.632C109.511 17.632 111.082 18.0753 112.45 18.962C113.843 19.8487 114.932 21.0647 115.718 22.61C116.528 24.1553 116.934 25.9413 116.934 27.968C116.934 29.9693 116.528 31.7553 115.718 33.326C114.932 34.8713 113.843 36.1 112.45 37.012C111.082 37.8987 109.536 38.342 107.814 38.342C106.648 38.342 105.521 38.114 104.432 37.658C103.368 37.202 102.456 36.6067 101.696 35.872C100.961 35.1373 100.505 34.3647 100.328 33.554L101.468 33.022V46.36H96.7555ZM106.864 34.2C107.928 34.2 108.878 33.934 109.714 33.402C110.55 32.87 111.196 32.1353 111.652 31.198C112.133 30.2607 112.374 29.184 112.374 27.968C112.374 26.752 112.146 25.688 111.69 24.776C111.234 23.8387 110.588 23.104 109.752 22.572C108.916 22.04 107.953 21.774 106.864 21.774C105.749 21.774 104.774 22.04 103.938 22.572C103.127 23.0787 102.481 23.8007 102 24.738C101.518 25.6753 101.278 26.752 101.278 27.968C101.278 29.184 101.518 30.2607 102 31.198C102.481 32.1353 103.127 32.87 103.938 33.402C104.774 33.934 105.749 34.2 106.864 34.2ZM130.257 38.38C128.256 38.38 126.47 37.9367 124.899 37.05C123.329 36.138 122.087 34.8967 121.175 33.326C120.263 31.7553 119.807 29.9693 119.807 27.968C119.807 25.9667 120.263 24.1807 121.175 22.61C122.087 21.0393 123.329 19.8107 124.899 18.924C126.47 18.012 128.256 17.556 130.257 17.556C132.233 17.556 134.007 18.012 135.577 18.924C137.148 19.8107 138.377 21.0393 139.263 22.61C140.175 24.1807 140.631 25.9667 140.631 27.968C140.631 29.9693 140.175 31.7553 139.263 33.326C138.377 34.8967 137.148 36.138 135.577 37.05C134.007 37.9367 132.233 38.38 130.257 38.38ZM130.257 34.238C131.347 34.238 132.309 33.9593 133.145 33.402C134.007 32.8447 134.678 32.0973 135.159 31.16C135.666 30.2227 135.907 29.1587 135.881 27.968C135.907 26.752 135.666 25.6753 135.159 24.738C134.678 23.8007 134.007 23.066 133.145 22.534C132.309 21.9767 131.347 21.698 130.257 21.698C129.168 21.698 128.18 21.9767 127.293 22.534C126.432 23.066 125.761 23.8133 125.279 24.776C124.798 25.7133 124.557 26.7773 124.557 27.968C124.557 29.1587 124.798 30.2227 125.279 31.16C125.761 32.0973 126.432 32.8447 127.293 33.402C128.18 33.9593 129.168 34.238 130.257 34.238ZM145.648 38V11.4H157.2C158.796 11.4 160.253 11.78 161.57 12.54C162.888 13.2747 163.926 14.288 164.686 15.58C165.472 16.8467 165.864 18.278 165.864 19.874C165.864 21.394 165.472 22.8 164.686 24.092C163.926 25.3587 162.888 26.372 161.57 27.132C160.278 27.8667 158.822 28.234 157.2 28.234H150.474V38H145.648ZM161.076 38L154.312 25.992L159.404 25.042L166.928 38.038L161.076 38ZM150.474 23.94H157.238C157.973 23.94 158.606 23.7753 159.138 23.446C159.696 23.0913 160.126 22.61 160.43 22.002C160.734 21.394 160.886 20.7227 160.886 19.988C160.886 19.152 160.696 18.43 160.316 17.822C159.936 17.214 159.404 16.7327 158.72 16.378C158.036 16.0233 157.251 15.846 156.364 15.846H150.474V23.94ZM179.952 38.38C177.849 38.38 175.987 37.9367 174.366 37.05C172.77 36.1633 171.516 34.96 170.604 33.44C169.717 31.8947 169.274 30.134 169.274 28.158C169.274 26.5873 169.527 25.156 170.034 23.864C170.541 22.572 171.237 21.4573 172.124 20.52C173.036 19.5573 174.113 18.8227 175.354 18.316C176.621 17.784 178.001 17.518 179.496 17.518C180.813 17.518 182.042 17.7713 183.182 18.278C184.322 18.7847 185.31 19.4813 186.146 20.368C186.982 21.2293 187.615 22.268 188.046 23.484C188.502 24.6747 188.717 25.9793 188.692 27.398L188.654 29.032H172.428L171.554 25.84H184.74L184.132 26.486V25.65C184.056 24.8647 183.803 24.1807 183.372 23.598C182.941 22.99 182.384 22.5213 181.7 22.192C181.041 21.8373 180.307 21.66 179.496 21.66C178.255 21.66 177.203 21.9007 176.342 22.382C175.506 22.8633 174.873 23.56 174.442 24.472C174.011 25.3587 173.796 26.4733 173.796 27.816C173.796 29.108 174.062 30.2353 174.594 31.198C175.151 32.1607 175.924 32.908 176.912 33.44C177.925 33.9467 179.103 34.2 180.446 34.2C181.383 34.2 182.245 34.048 183.03 33.744C183.815 33.44 184.664 32.8953 185.576 32.11L187.894 35.34C187.21 35.9733 186.425 36.518 185.538 36.974C184.677 37.4047 183.765 37.7467 182.802 38C181.839 38.2533 180.889 38.38 179.952 38.38ZM198.883 38L190.447 17.974H195.539L201.239 32.946L200.251 33.212L206.255 17.974H211.233L202.379 38H198.883ZM223.481 38.38C221.379 38.38 219.517 37.9367 217.895 37.05C216.299 36.1633 215.045 34.96 214.133 33.44C213.247 31.8947 212.803 30.134 212.803 28.158C212.803 26.5873 213.057 25.156 213.563 23.864C214.07 22.572 214.767 21.4573 215.653 20.52C216.565 19.5573 217.642 18.8227 218.883 18.316C220.15 17.784 221.531 17.518 223.025 17.518C224.343 17.518 225.571 17.7713 226.711 18.278C227.851 18.7847 228.839 19.4813 229.675 20.368C230.511 21.2293 231.145 22.268 231.575 23.484C232.031 24.6747 232.247 25.9793 232.221 27.398L232.183 29.032H215.957L215.083 25.84H228.269L227.661 26.486V25.65C227.585 24.8647 227.332 24.1807 226.901 23.598C226.471 22.99 225.913 22.5213 225.229 22.192C224.571 21.8373 223.836 21.66 223.025 21.66C221.784 21.66 220.733 21.9007 219.871 22.382C219.035 22.8633 218.402 23.56 217.971 24.472C217.541 25.3587 217.325 26.4733 217.325 27.816C217.325 29.108 217.591 30.2353 218.123 31.198C218.681 32.1607 219.453 32.908 220.441 33.44C221.455 33.9467 222.633 34.2 223.975 34.2C224.913 34.2 225.774 34.048 226.559 33.744C227.345 33.44 228.193 32.8953 229.105 32.11L231.423 35.34C230.739 35.9733 229.954 36.518 229.067 36.974C228.206 37.4047 227.294 37.7467 226.331 38C225.369 38.2533 224.419 38.38 223.481 38.38ZM243.923 38.38C242.276 38.38 240.782 37.924 239.439 37.012C238.096 36.1 237.02 34.8587 236.209 33.288C235.398 31.7173 234.993 29.9313 234.993 27.93C234.993 25.9287 235.398 24.1427 236.209 22.572C237.02 21.0013 238.122 19.7727 239.515 18.886C240.908 17.9993 242.479 17.556 244.227 17.556C245.24 17.556 246.165 17.708 247.001 18.012C247.837 18.2907 248.572 18.696 249.205 19.228C249.838 19.76 250.358 20.368 250.763 21.052C251.194 21.736 251.485 22.4707 251.637 23.256L250.611 22.99V17.974H255.323V38H250.573V33.212L251.675 33.022C251.498 33.706 251.168 34.3773 250.687 35.036C250.231 35.6693 249.648 36.2393 248.939 36.746C248.255 37.2273 247.482 37.62 246.621 37.924C245.785 38.228 244.886 38.38 243.923 38.38ZM245.215 34.238C246.304 34.238 247.267 33.972 248.103 33.44C248.939 32.908 249.585 32.1733 250.041 31.236C250.522 30.2733 250.763 29.1713 250.763 27.93C250.763 26.714 250.522 25.6373 250.041 24.7C249.585 23.7627 248.939 23.028 248.103 22.496C247.267 21.964 246.304 21.698 245.215 21.698C244.126 21.698 243.163 21.964 242.327 22.496C241.516 23.028 240.883 23.7627 240.427 24.7C239.971 25.6373 239.743 26.714 239.743 27.93C239.743 29.1713 239.971 30.2733 240.427 31.236C240.883 32.1733 241.516 32.908 242.327 33.44C243.163 33.972 244.126 34.238 245.215 34.238ZM260.78 38V9.88H265.492V38H260.78Z" fill="#084B71"/>
<path d="M109.41 53V42.5H116.28V44.27H111.33V51.23H116.34V53H109.41ZM110.31 48.5V46.76H115.515V48.5H110.31ZM123.57 53L121.32 49.955L120.9 49.385L117.645 45.095H119.925L122.115 48.065L122.58 48.695L125.805 53H123.57ZM117.63 53L120.765 48.8L121.815 50.06L119.805 53H117.63ZM122.58 49.31L121.575 48.065L123.39 45.095H125.565L122.58 49.31ZM127.127 56.3V45.095H128.942L128.972 46.895L128.657 46.76C128.717 46.45 128.887 46.16 129.167 45.89C129.447 45.61 129.787 45.385 130.187 45.215C130.597 45.045 131.022 44.96 131.462 44.96C132.162 44.96 132.782 45.135 133.322 45.485C133.872 45.835 134.302 46.315 134.612 46.925C134.932 47.535 135.092 48.24 135.092 49.04C135.092 49.83 134.932 50.535 134.612 51.155C134.302 51.765 133.872 52.25 133.322 52.61C132.782 52.96 132.172 53.135 131.492 53.135C131.032 53.135 130.587 53.045 130.157 52.865C129.737 52.685 129.377 52.45 129.077 52.16C128.787 51.87 128.607 51.565 128.537 51.245L128.987 51.035V56.3H127.127ZM131.117 51.5C131.537 51.5 131.912 51.395 132.242 51.185C132.572 50.975 132.827 50.685 133.007 50.315C133.197 49.945 133.292 49.52 133.292 49.04C133.292 48.56 133.202 48.14 133.022 47.78C132.842 47.41 132.587 47.12 132.257 46.91C131.927 46.7 131.547 46.595 131.117 46.595C130.677 46.595 130.292 46.7 129.962 46.91C129.642 47.11 129.387 47.395 129.197 47.765C129.007 48.135 128.912 48.56 128.912 49.04C128.912 49.52 129.007 49.945 129.197 50.315C129.387 50.685 129.642 50.975 129.962 51.185C130.292 51.395 130.677 51.5 131.117 51.5ZM136.751 53V41.9H138.611V53H136.751ZM144.248 53.15C143.458 53.15 142.753 52.975 142.133 52.625C141.513 52.265 141.023 51.775 140.663 51.155C140.303 50.535 140.123 49.83 140.123 49.04C140.123 48.25 140.303 47.545 140.663 46.925C141.023 46.305 141.513 45.82 142.133 45.47C142.753 45.11 143.458 44.93 144.248 44.93C145.028 44.93 145.728 45.11 146.348 45.47C146.968 45.82 147.453 46.305 147.803 46.925C148.163 47.545 148.343 48.25 148.343 49.04C148.343 49.83 148.163 50.535 147.803 51.155C147.453 51.775 146.968 52.265 146.348 52.625C145.728 52.975 145.028 53.15 144.248 53.15ZM144.248 51.515C144.678 51.515 145.058 51.405 145.388 51.185C145.728 50.965 145.993 50.67 146.183 50.3C146.383 49.93 146.478 49.51 146.468 49.04C146.478 48.56 146.383 48.135 146.183 47.765C145.993 47.395 145.728 47.105 145.388 46.895C145.058 46.675 144.678 46.565 144.248 46.565C143.818 46.565 143.428 46.675 143.078 46.895C142.738 47.105 142.473 47.4 142.283 47.78C142.093 48.15 141.998 48.57 141.998 49.04C141.998 49.51 142.093 49.93 142.283 50.3C142.473 50.67 142.738 50.965 143.078 51.185C143.428 51.405 143.818 51.515 144.248 51.515ZM149.993 53V45.095H151.808L151.838 47.615L151.583 47.045C151.693 46.645 151.883 46.285 152.153 45.965C152.423 45.645 152.733 45.395 153.083 45.215C153.443 45.025 153.818 44.93 154.208 44.93C154.378 44.93 154.538 44.945 154.688 44.975C154.848 45.005 154.978 45.04 155.078 45.08L154.583 47.105C154.473 47.045 154.338 46.995 154.178 46.955C154.018 46.915 153.858 46.895 153.698 46.895C153.448 46.895 153.208 46.945 152.978 47.045C152.758 47.135 152.563 47.265 152.393 47.435C152.223 47.605 152.088 47.805 151.988 48.035C151.898 48.255 151.853 48.505 151.853 48.785V53H149.993ZM159.675 53.15C158.845 53.15 158.11 52.975 157.47 52.625C156.84 52.275 156.345 51.8 155.985 51.2C155.635 50.59 155.46 49.895 155.46 49.115C155.46 48.495 155.56 47.93 155.76 47.42C155.96 46.91 156.235 46.47 156.585 46.1C156.945 45.72 157.37 45.43 157.86 45.23C158.36 45.02 158.905 44.915 159.495 44.915C160.015 44.915 160.5 45.015 160.95 45.215C161.4 45.415 161.79 45.69 162.12 46.04C162.45 46.38 162.7 46.79 162.87 47.27C163.05 47.74 163.135 48.255 163.125 48.815L163.11 49.46H156.705L156.36 48.2H161.565L161.325 48.455V48.125C161.295 47.815 161.195 47.545 161.025 47.315C160.855 47.075 160.635 46.89 160.365 46.76C160.105 46.62 159.815 46.55 159.495 46.55C159.005 46.55 158.59 46.645 158.25 46.835C157.92 47.025 157.67 47.3 157.5 47.66C157.33 48.01 157.245 48.45 157.245 48.98C157.245 49.49 157.35 49.935 157.56 50.315C157.78 50.695 158.085 50.99 158.475 51.2C158.875 51.4 159.34 51.5 159.87 51.5C160.24 51.5 160.58 51.44 160.89 51.32C161.2 51.2 161.535 50.985 161.895 50.675L162.81 51.95C162.54 52.2 162.23 52.415 161.88 52.595C161.54 52.765 161.18 52.9 160.8 53C160.42 53.1 160.045 53.15 159.675 53.15ZM174.268 53.15C173.478 53.15 172.748 53.015 172.078 52.745C171.408 52.465 170.823 52.08 170.323 51.59C169.833 51.1 169.453 50.53 169.183 49.88C168.913 49.22 168.778 48.505 168.778 47.735C168.778 46.975 168.913 46.27 169.183 45.62C169.463 44.96 169.853 44.39 170.353 43.91C170.853 43.42 171.438 43.04 172.108 42.77C172.788 42.5 173.518 42.365 174.298 42.365C174.848 42.365 175.378 42.44 175.888 42.59C176.398 42.74 176.858 42.95 177.268 43.22C177.678 43.49 178.018 43.795 178.288 44.135L177.058 45.425C176.778 45.155 176.488 44.93 176.188 44.75C175.898 44.57 175.593 44.43 175.273 44.33C174.953 44.23 174.623 44.18 174.283 44.18C173.783 44.18 173.318 44.27 172.888 44.45C172.468 44.63 172.098 44.88 171.778 45.2C171.468 45.52 171.223 45.895 171.043 46.325C170.863 46.755 170.773 47.225 170.773 47.735C170.773 48.225 170.863 48.69 171.043 49.13C171.233 49.57 171.493 49.955 171.823 50.285C172.153 50.615 172.533 50.875 172.963 51.065C173.403 51.245 173.868 51.335 174.358 51.335C174.728 51.335 175.073 51.28 175.393 51.17C175.713 51.06 175.998 50.91 176.248 50.72C176.498 50.52 176.688 50.29 176.818 50.03C176.958 49.77 177.028 49.49 177.028 49.19V48.86L177.298 49.175H174.193V47.435H178.948C178.968 47.545 178.983 47.67 178.993 47.81C179.003 47.94 179.008 48.07 179.008 48.2C179.018 48.32 179.023 48.425 179.023 48.515C179.023 49.205 178.903 49.835 178.663 50.405C178.423 50.965 178.083 51.45 177.643 51.86C177.213 52.27 176.708 52.59 176.128 52.82C175.558 53.04 174.938 53.15 174.268 53.15ZM180.95 53V45.095H182.795V53H180.95ZM181.85 43.415C181.48 43.415 181.19 43.325 180.98 43.145C180.78 42.955 180.68 42.69 180.68 42.35C180.68 42.03 180.785 41.77 180.995 41.57C181.205 41.37 181.49 41.27 181.85 41.27C182.23 41.27 182.52 41.365 182.72 41.555C182.93 41.735 183.035 42 183.035 42.35C183.035 42.66 182.93 42.915 182.72 43.115C182.51 43.315 182.22 43.415 181.85 43.415ZM185.99 53V43.085H187.835V53H185.99ZM184.43 46.805V45.095H189.56V46.805H184.43ZM190.965 53V41.9H192.795V46.715L192.45 46.895C192.55 46.535 192.745 46.21 193.035 45.92C193.325 45.62 193.67 45.38 194.07 45.2C194.47 45.02 194.88 44.93 195.3 44.93C195.9 44.93 196.4 45.05 196.8 45.29C197.21 45.53 197.515 45.89 197.715 46.37C197.925 46.85 198.03 47.45 198.03 48.17V53H196.185V48.305C196.185 47.905 196.13 47.575 196.02 47.315C195.91 47.045 195.74 46.85 195.51 46.73C195.28 46.6 195 46.54 194.67 46.55C194.4 46.55 194.15 46.595 193.92 46.685C193.7 46.765 193.505 46.885 193.335 47.045C193.175 47.195 193.045 47.37 192.945 47.57C192.855 47.77 192.81 47.99 192.81 48.23V53H191.895C191.715 53 191.545 53 191.385 53C191.235 53 191.095 53 190.965 53ZM202.85 53.15C202.28 53.15 201.785 53.025 201.365 52.775C200.945 52.515 200.625 52.15 200.405 51.68C200.185 51.2 200.075 50.63 200.075 49.97V45.095H201.92V49.58C201.92 50 201.985 50.36 202.115 50.66C202.245 50.95 202.435 51.175 202.685 51.335C202.935 51.495 203.235 51.575 203.585 51.575C203.845 51.575 204.08 51.535 204.29 51.455C204.51 51.365 204.7 51.245 204.86 51.095C205.02 50.935 205.145 50.75 205.235 50.54C205.325 50.32 205.37 50.085 205.37 49.835V45.095H207.215V53H205.415L205.385 51.35L205.715 51.17C205.595 51.55 205.39 51.89 205.1 52.19C204.82 52.48 204.485 52.715 204.095 52.895C203.705 53.065 203.29 53.15 202.85 53.15ZM213.743 53.15C213.393 53.15 213.048 53.1 212.708 53C212.378 52.89 212.078 52.745 211.808 52.565C211.538 52.385 211.313 52.185 211.133 51.965C210.953 51.735 210.833 51.505 210.773 51.275L211.208 51.08L211.163 52.97H209.378V41.9H211.223V46.925L210.893 46.775C210.943 46.535 211.053 46.31 211.223 46.1C211.403 45.88 211.623 45.685 211.883 45.515C212.143 45.335 212.428 45.195 212.738 45.095C213.048 44.985 213.363 44.93 213.683 44.93C214.393 44.93 215.018 45.105 215.558 45.455C216.108 45.805 216.538 46.29 216.848 46.91C217.168 47.53 217.328 48.235 217.328 49.025C217.328 49.825 217.173 50.535 216.863 51.155C216.553 51.775 216.123 52.265 215.573 52.625C215.033 52.975 214.423 53.15 213.743 53.15ZM213.353 51.53C213.773 51.53 214.148 51.425 214.478 51.215C214.808 50.995 215.068 50.7 215.258 50.33C215.448 49.95 215.543 49.515 215.543 49.025C215.543 48.545 215.448 48.12 215.258 47.75C215.078 47.38 214.823 47.09 214.493 46.88C214.163 46.67 213.783 46.565 213.353 46.565C212.923 46.565 212.543 46.67 212.213 46.88C211.883 47.09 211.623 47.38 211.433 47.75C211.243 48.12 211.148 48.545 211.148 49.025C211.148 49.515 211.243 49.95 211.433 50.33C211.623 50.7 211.883 50.995 212.213 51.215C212.543 51.425 212.923 51.53 213.353 51.53ZM223.712 53V42.5H228.272C228.902 42.5 229.477 42.65 229.997 42.95C230.517 43.24 230.927 43.64 231.227 44.15C231.537 44.65 231.692 45.215 231.692 45.845C231.692 46.445 231.537 47 231.227 47.51C230.927 48.01 230.517 48.41 229.997 48.71C229.487 49 228.912 49.145 228.272 49.145H225.617V53H223.712ZM229.802 53L227.132 48.26L229.142 47.885L232.112 53.015L229.802 53ZM225.617 47.45H228.287C228.577 47.45 228.827 47.385 229.037 47.255C229.257 47.115 229.427 46.925 229.547 46.685C229.667 46.445 229.727 46.18 229.727 45.89C229.727 45.56 229.652 45.275 229.502 45.035C229.352 44.795 229.142 44.605 228.872 44.465C228.602 44.325 228.292 44.255 227.942 44.255H225.617V47.45ZM237.253 53.15C236.423 53.15 235.688 52.975 235.048 52.625C234.418 52.275 233.923 51.8 233.563 51.2C233.213 50.59 233.038 49.895 233.038 49.115C233.038 48.495 233.138 47.93 233.338 47.42C233.538 46.91 233.813 46.47 234.163 46.1C234.523 45.72 234.948 45.43 235.438 45.23C235.938 45.02 236.483 44.915 237.073 44.915C237.593 44.915 238.078 45.015 238.528 45.215C238.978 45.415 239.368 45.69 239.698 46.04C240.028 46.38 240.278 46.79 240.448 47.27C240.628 47.74 240.713 48.255 240.703 48.815L240.688 49.46H234.283L233.938 48.2H239.143L238.903 48.455V48.125C238.873 47.815 238.773 47.545 238.603 47.315C238.433 47.075 238.213 46.89 237.943 46.76C237.683 46.62 237.393 46.55 237.073 46.55C236.583 46.55 236.168 46.645 235.828 46.835C235.498 47.025 235.248 47.3 235.078 47.66C234.908 48.01 234.823 48.45 234.823 48.98C234.823 49.49 234.928 49.935 235.138 50.315C235.358 50.695 235.663 50.99 236.053 51.2C236.453 51.4 236.918 51.5 237.448 51.5C237.818 51.5 238.158 51.44 238.468 51.32C238.778 51.2 239.113 50.985 239.473 50.675L240.388 51.95C240.118 52.2 239.808 52.415 239.458 52.595C239.118 52.765 238.758 52.9 238.378 53C237.998 53.1 237.623 53.15 237.253 53.15ZM242.337 56.3V45.095H244.152L244.182 46.895L243.867 46.76C243.927 46.45 244.097 46.16 244.377 45.89C244.657 45.61 244.997 45.385 245.397 45.215C245.807 45.045 246.232 44.96 246.672 44.96C247.372 44.96 247.992 45.135 248.532 45.485C249.082 45.835 249.512 46.315 249.822 46.925C250.142 47.535 250.302 48.24 250.302 49.04C250.302 49.83 250.142 50.535 249.822 51.155C249.512 51.765 249.082 52.25 248.532 52.61C247.992 52.96 247.382 53.135 246.702 53.135C246.242 53.135 245.797 53.045 245.367 52.865C244.947 52.685 244.587 52.45 244.287 52.16C243.997 51.87 243.817 51.565 243.747 51.245L244.197 51.035V56.3H242.337ZM246.327 51.5C246.747 51.5 247.122 51.395 247.452 51.185C247.782 50.975 248.037 50.685 248.217 50.315C248.407 49.945 248.502 49.52 248.502 49.04C248.502 48.56 248.412 48.14 248.232 47.78C248.052 47.41 247.797 47.12 247.467 46.91C247.137 46.7 246.757 46.595 246.327 46.595C245.887 46.595 245.502 46.7 245.172 46.91C244.852 47.11 244.597 47.395 244.407 47.765C244.217 48.135 244.122 48.56 244.122 49.04C244.122 49.52 244.217 49.945 244.407 50.315C244.597 50.685 244.852 50.975 245.172 51.185C245.502 51.395 245.887 51.5 246.327 51.5ZM255.561 53.15C254.771 53.15 254.066 52.975 253.446 52.625C252.826 52.265 252.336 51.775 251.976 51.155C251.616 50.535 251.436 49.83 251.436 49.04C251.436 48.25 251.616 47.545 251.976 46.925C252.336 46.305 252.826 45.82 253.446 45.47C254.066 45.11 254.771 44.93 255.561 44.93C256.341 44.93 257.041 45.11 257.661 45.47C258.281 45.82 258.766 46.305 259.116 46.925C259.476 47.545 259.656 48.25 259.656 49.04C259.656 49.83 259.476 50.535 259.116 51.155C258.766 51.775 258.281 52.265 257.661 52.625C257.041 52.975 256.341 53.15 255.561 53.15ZM255.561 51.515C255.991 51.515 256.371 51.405 256.701 51.185C257.041 50.965 257.306 50.67 257.496 50.3C257.696 49.93 257.791 49.51 257.781 49.04C257.791 48.56 257.696 48.135 257.496 47.765C257.306 47.395 257.041 47.105 256.701 46.895C256.371 46.675 255.991 46.565 255.561 46.565C255.131 46.565 254.741 46.675 254.391 46.895C254.051 47.105 253.786 47.4 253.596 47.78C253.406 48.15 253.311 48.57 253.311 49.04C253.311 49.51 253.406 49.93 253.596 50.3C253.786 50.67 254.051 50.965 254.391 51.185C254.741 51.405 255.131 51.515 255.561 51.515ZM263.947 53.15C263.247 53.15 262.617 53.035 262.057 52.805C261.507 52.565 261.057 52.225 260.707 51.785L261.907 50.75C262.207 51.09 262.542 51.335 262.912 51.485C263.282 51.635 263.672 51.71 264.082 51.71C264.252 51.71 264.402 51.69 264.532 51.65C264.672 51.61 264.792 51.55 264.892 51.47C264.992 51.39 265.067 51.3 265.117 51.2C265.177 51.09 265.207 50.97 265.207 50.84C265.207 50.6 265.117 50.41 264.937 50.27C264.837 50.2 264.677 50.125 264.457 50.045C264.247 49.965 263.972 49.885 263.632 49.805C263.092 49.665 262.642 49.505 262.282 49.325C261.922 49.135 261.642 48.925 261.442 48.695C261.272 48.505 261.142 48.29 261.052 48.05C260.972 47.81 260.932 47.55 260.932 47.27C260.932 46.92 261.007 46.605 261.157 46.325C261.317 46.035 261.532 45.785 261.802 45.575C262.072 45.365 262.387 45.205 262.747 45.095C263.107 44.985 263.482 44.93 263.872 44.93C264.272 44.93 264.657 44.98 265.027 45.08C265.407 45.18 265.757 45.325 266.077 45.515C266.407 45.695 266.687 45.915 266.917 46.175L265.897 47.3C265.707 47.12 265.497 46.96 265.267 46.82C265.047 46.68 264.822 46.57 264.592 46.49C264.362 46.4 264.147 46.355 263.947 46.355C263.757 46.355 263.587 46.375 263.437 46.415C263.287 46.445 263.162 46.495 263.062 46.565C262.962 46.635 262.882 46.725 262.822 46.835C262.772 46.935 262.747 47.055 262.747 47.195C262.757 47.315 262.787 47.43 262.837 47.54C262.897 47.64 262.977 47.725 263.077 47.795C263.187 47.865 263.352 47.945 263.572 48.035C263.792 48.125 264.077 48.21 264.427 48.29C264.917 48.42 265.327 48.565 265.657 48.725C265.987 48.885 266.247 49.07 266.437 49.28C266.627 49.46 266.762 49.67 266.842 49.91C266.922 50.15 266.962 50.415 266.962 50.705C266.962 51.175 266.827 51.595 266.557 51.965C266.297 52.335 265.937 52.625 265.477 52.835C265.027 53.045 264.517 53.15 263.947 53.15Z" fill="black"/>
<path d="M23 4.83337C20.483 4.83337 17.9906 5.32913 15.6653 6.29236C13.3398 7.25556 11.2269 8.66737 9.44711 10.4472C5.85265 14.0416 3.83331 18.9167 3.83331 24C3.83331 32.4717 9.33415 39.6592 16.9433 42.2084C17.9016 42.3617 18.2083 41.7675 18.2083 41.25V38.0109C12.8991 39.1609 11.7683 35.4425 11.7683 35.4425C10.8866 33.2192 9.64081 32.625 9.64081 32.625C7.89665 31.4367 9.77498 31.475 9.77498 31.475C11.6916 31.6092 12.7075 33.4492 12.7075 33.4492C14.375 36.3625 17.1925 35.5 18.285 35.04C18.4575 33.7942 18.9558 32.9509 19.4925 32.4717C15.2375 31.9925 10.7716 30.3442 10.7716 23.0417C10.7716 20.9142 11.5 19.2084 12.7458 17.8475C12.5541 17.3684 11.8833 15.375 12.9375 12.7875C12.9375 12.7875 14.5475 12.27 18.2083 14.7425C19.7225 14.3209 21.3708 14.11 23 14.11C24.6291 14.11 26.2775 14.3209 27.7916 14.7425C31.4525 12.27 33.0625 12.7875 33.0625 12.7875C34.1166 15.375 33.4458 17.3684 33.2541 17.8475C34.5 19.2084 35.2283 20.9142 35.2283 23.0417C35.2283 30.3634 30.7433 31.9734 26.4691 32.4525C27.1591 33.0467 27.7916 34.2159 27.7916 35.9984V41.25C27.7916 41.7675 28.0983 42.3809 29.0758 42.2084C36.685 39.64 42.1666 32.4717 42.1666 24C42.1666 21.4831 41.6709 18.9906 40.7077 16.6653C39.7444 14.3399 38.3327 12.227 36.5528 10.4472C34.7731 8.66737 32.6601 7.25556 30.3347 6.29236C28.0094 5.32913 25.5169 4.83337 23 4.83337Z" fill="black"/>
</svg>
