<svg width="300" height="300" viewBox="0 0 300 300" fill="none" xmlns="http://www.w3.org/2000/svg">
<rect width="300" height="300" fill="#D2D2D2"/>
<path fill-rule="evenodd" clip-rule="evenodd" d="M206.25 88.2875C206.25 128.225 182.125 162.5 150 162.5C117.85 162.5 93.75 128.225 93.75 88.275C93.75 48.35 114.5 25 150 25C185.5 25 206.25 48.3375 206.25 88.2875ZM51.275 251.775C56.0875 257.5 76.8125 275 150 275C223.188 275 243.9 257.5 248.725 251.787C249.173 251.238 249.503 250.604 249.697 249.922C249.89 249.241 249.942 248.527 249.85 247.825C248.75 236.8 238.825 187.5 150 187.5C61.175 187.5 51.25 236.8 50.1375 247.825C50.047 248.528 50.1012 249.242 50.2968 249.924C50.4924 250.605 50.8253 251.227 51.275 251.775Z" fill="#3C3939"/>
</svg>
